<?xml version="1.0" encoding="UTF-8" standalone="no"?>
<svg
   xmlns:dc="http://purl.org/dc/elements/1.1/"
   xmlns:cc="http://creativecommons.org/ns#"
   xmlns:rdf="http://www.w3.org/1999/02/22-rdf-syntax-ns#"
   xmlns:svg="http://www.w3.org/2000/svg"
   xmlns="http://www.w3.org/2000/svg"
   width="16.933332mm"
   height="16.933332mm"
   viewBox="0 0 59.999997 59.999997"
   id="svg2"
   version="1.1">
  <defs
     id="defs4" />
  <metadata
     id="metadata7">
    <rdf:RDF>
      <cc:Work
         rdf:about="">
        <dc:format>image/svg+xml</dc:format>
        <dc:type
           rdf:resource="http://purl.org/dc/dcmitype/StillImage" />
        <dc:title></dc:title>
      </cc:Work>
    </rdf:RDF>
  </metadata>
  <path
     id="path4163"
     d="M 30 0 A 30.000001 30.000001 0 0 0 0 30 A 30.000001 30.000001 0 0 0 30 60 A 30.000001 30.000001 0 0 0 60 30 A 30.000001 30.000001 0 0 0 30 0 z M 30 5 A 25.000002 25 0 0 1 55 30 A 25.000002 25 0 0 1 30 55 A 25.000002 25 0 0 1 5 30 A 25.000002 25 0 0 1 30 5 z M 23 17 L 23 43 L 42 30 L 23 17 z "
     style="opacity:1;fill:#bebebe;fill-opacity:1;stroke:none;stroke-width:4;stroke-miterlimit:4;stroke-dasharray:none;stroke-opacity:0.2071006" />
</svg>
