<svg xmlns="http://www.w3.org/2000/svg" height="48" width="42">
  <path fill="#bebebe" d="M12 0a3 3 0 0 0-3 3 3 3 0 0 0 3 3 3 3 0 0 0 .803-.111l3.093 3.134H7.875C3.512 9.023 0 12.137 0 16.5v23.625A7.858 7.858 0 0 0 7.875 48h26.25A7.858 7.858 0 0 0 42 40.125V16.5c0-4.363-3.512-7.477-7.875-7.477h-7.963L29.21 5.9a3 3 0 0 0 .756.1 3 3 0 0 0 3-3 3 3 0 0 0-3-3 3 3 0 0 0-3 3 3 3 0 0 0 .123.85L21.938 9h-1.97l-5.091-5.162A3 3 0 0 0 15 3a3 3 0 0 0-3-3zm-1.5 12h21c6.013 1.611 5.941 20.57 0 24h-21c-6.957-4.73-4.757-21.253 0-24zm19.43 30.012h3.14v3.134h-3.14z" />
</svg>
