<?xml version="1.0" encoding="UTF-8" standalone="no"?>
<svg
   xmlns:dc="http://purl.org/dc/elements/1.1/"
   xmlns:cc="http://creativecommons.org/ns#"
   xmlns:rdf="http://www.w3.org/1999/02/22-rdf-syntax-ns#"
   xmlns:svg="http://www.w3.org/2000/svg"
   xmlns="http://www.w3.org/2000/svg"
   width="42"
   version="1.1"
   id="svg7384"
   height="48">
  <metadata
     id="metadata90">
    <rdf:RDF>
      <cc:Work
         rdf:about="">
        <dc:format>image/svg+xml</dc:format>
        <dc:type
           rdf:resource="http://purl.org/dc/dcmitype/StillImage" />
        <dc:title>Gnome Symbolic Icon Theme</dc:title>
      </cc:Work>
    </rdf:RDF>
  </metadata>
  <title
     id="title9167">Gnome Symbolic Icon Theme</title>
  <defs
     id="defs7386" />
  <g
     transform="translate(-242.0002,-515)"
     style="display:inline"
     id="layer9" />
  <g
     transform="translate(-242.0002,-515)"
     style="display:inline"
     id="layer10">
    <path
       id="path27207"
       d="m 254.0002,515 a 3,3 0 0 0 -3,3 3,3 0 0 0 3,3 3,3 0 0 0 0.80273,-0.11133 l 3.09375,3.13477 -8.02148,0 c -4.36275,0 -7.875,3.11381 -7.875,7.47656 l 0,23.625 c 0,4.36275 3.51225,7.875 7.875,7.875 l 26.25,0 c 4.36275,0 7.875,-3.51225 7.875,-7.875 l 0,-23.625 c 0,-4.36275 -3.51225,-7.47656 -7.875,-7.47656 l -7.96289,0 3.04687,-3.12305 a 3,3 0 0 0 0.75586,0.0996 3,3 0 0 0 3,-3 3,3 0 0 0 -3,-3 3,3 0 0 0 -3,3 3,3 0 0 0 0.12305,0.84961 L 263.9377,524 l -1.96875,0 -5.0918,-5.16211 A 3,3 0 0 0 257.0002,518 a 3,3 0 0 0 -3,-3 z m -1.5,12 8.25,0 3.9375,0 8.8125,0 c 6.01251,1.61106 5.9415,20.56971 0,24 l -21,0 c -6.95697,-4.73007 -4.75728,-21.25338 0,-24 z m 19.42969,30.01172 3.14062,0 0,3.13476 -3.14062,0 0,-3.13476 z"
       style="fill:#bebebe;fill-opacity:1;stroke:none" />
  </g>
  <g
     transform="translate(-242.0002,-515)"
     id="layer11" />
  <g
     transform="translate(-242.0002,-515)"
     style="display:inline"
     id="layer13" />
  <g
     transform="translate(-242.0002,-515)"
     id="layer14" />
  <g
     transform="translate(-242.0002,-515)"
     style="display:inline"
     id="layer15" />
  <g
     transform="translate(-242.0002,-515)"
     style="display:inline"
     id="g71291" />
  <g
     transform="translate(-242.0002,-515)"
     style="display:inline"
     id="g4953" />
  <g
     transform="translate(-242.0002,-515)"
     style="display:inline"
     id="layer12" />
</svg>
