<?xml version="1.0" encoding="UTF-8" standalone="no"?>
<svg
   xmlns:dc="http://purl.org/dc/elements/1.1/"
   xmlns:cc="http://creativecommons.org/ns#"
   xmlns:rdf="http://www.w3.org/1999/02/22-rdf-syntax-ns#"
   xmlns:svg="http://www.w3.org/2000/svg"
   xmlns="http://www.w3.org/2000/svg"
   version="1.1"
   id="svg2"
   viewBox="0 0 59.999997 59.999997"
   height="16.933332mm"
   width="16.933332mm">
  <defs
     id="defs4" />
  <metadata
     id="metadata7">
    <rdf:RDF>
      <cc:Work
         rdf:about="">
        <dc:format>image/svg+xml</dc:format>
        <dc:type
           rdf:resource="http://purl.org/dc/dcmitype/StillImage" />
        <dc:title></dc:title>
      </cc:Work>
    </rdf:RDF>
  </metadata>
  <g
     transform="translate(-864.28571,-865.21936)"
     id="layer1">
    <path
       id="path4288"
       d="m 882.28571,870.21936 c 5,-2 14,-5 21,0 -17,22 15,29 5,49 -6.09228,3.4638 -12.89697,4.99395 -21,3 12,-26 -21,-22 -5,-52 z"
       style="opacity:0.3;fill:#bebebe;fill-opacity:1;fill-rule:evenodd;stroke:none;stroke-width:1px;stroke-linecap:butt;stroke-linejoin:miter;stroke-opacity:1" />
    <path
       id="path4263"
       transform="translate(864.28571,865.21936)"
       d="M 30 0 A 30 30 0 0 0 0 30 A 30 30 0 0 0 30 60 A 30 30 0 0 0 60 30 A 30 30 0 0 0 30 0 z M 30 4 A 25.999998 25.999995 0 0 1 36.123047 4.7617188 C 34.018178 8.1339768 32.75042 11.188639 32.121094 14 L 16.507812 14 C 17.268092 11.718039 18.56731 9.1391033 20.644531 6.1386719 A 2.0002 2.0002 0 0 0 20.890625 5.6640625 A 25.999998 25.999995 0 0 1 30 4 z M 40.064453 6.03125 A 25.999998 25.999995 0 0 1 56 30 A 25.999998 25.999995 0 0 1 47.171875 49.480469 C 47.900485 46.093722 47.668533 43.06774 46.8125 40.378906 C 45.44622 36.087386 42.71054 32.718397 40.375 29.460938 C 38.03945 26.203467 36.113001 23.122662 35.707031 19.482422 C 35.321087 16.021836 36.258468 11.804856 40.064453 6.03125 z M 14.080078 9.4589844 C 12.017206 13.769597 11.35589 17.549576 11.732422 20.925781 C 12.263942 25.691791 14.71054 29.423476 17.125 32.791016 C 19.53945 36.158546 21.930733 39.227057 23.001953 42.591797 C 24.035999 45.839763 24.01745 49.436866 21.484375 54.535156 A 25.999998 25.999995 0 0 1 4 30 A 25.999998 25.999995 0 0 1 14.080078 9.4589844 z M 15.791016 17 L 31.681641 17 C 31.618649 18.006224 31.62744 18.984451 31.732422 19.925781 C 32.073596 22.985004 33.207046 25.615852 34.611328 28 L 18.693359 28 C 17.15964 25.601527 16.009875 23.197952 15.707031 20.482422 C 15.586922 19.405453 15.613072 18.245006 15.791016 17 z M 20.765625 31 L 36.582031 31 C 36.764943 31.260282 36.941606 31.535229 37.125 31.791016 C 39.53945 35.158546 41.930733 38.227057 43.001953 41.591797 C 43.044636 41.725864 43.074307 41.864649 43.113281 42 L 26.978516 42 C 26.921332 41.793858 26.876908 41.581214 26.8125 41.378906 C 25.520508 37.320726 23.010376 34.094079 20.765625 31 z M 27.523438 45 L 43.615234 45 C 43.724984 47.340106 43.20119 49.981746 41.621094 53.25 A 25.999998 25.999995 0 0 1 30 56 A 25.999998 25.999995 0 0 1 25.433594 55.572266 C 27.244751 51.644139 27.800778 48.133777 27.523438 45 z "
       style="opacity:1;fill:#bebebe;fill-opacity:1;stroke:none;stroke-width:4;stroke-miterlimit:4;stroke-dasharray:none;stroke-opacity:0.2071006" />
  </g>
</svg>
