<svg xmlns="http://www.w3.org/2000/svg" viewBox="0 0 60 60" height="64" width="64">
  <g fill="#bebebe">
    <path d="M18 5c5-2 14-5 21 0-17 22 15 29 5 49-6.092 3.464-12.897 4.994-21 3C35 31 2 35 18 5z" opacity=".3" />
    <path d="M30 0A30 30 0 0 0 0 30a30 30 0 0 0 30 30 30 30 0 0 0 30-30A30 30 0 0 0 30 0zm0 4a26 26 0 0 1 6.123.762C34.018 8.134 32.75 11.189 32.121 14H16.508c.76-2.282 2.06-4.86 4.137-7.861a2 2 0 0 0 .246-.475A26 26 0 0 1 30 4zm10.064 2.031A26 26 0 0 1 56 30a26 26 0 0 1-8.828 19.48c.728-3.386.497-6.412-.36-9.101-1.366-4.292-4.101-7.66-6.437-10.918-2.336-3.258-4.262-6.338-4.668-9.979-.386-3.46.551-7.677 4.357-13.45zM14.08 9.46c-2.063 4.31-2.724 8.09-2.348 11.467.532 4.766 2.979 8.497 5.393 11.865 2.414 3.368 4.806 6.436 5.877 9.8 1.034 3.249 1.015 6.846-1.518 11.944A26 26 0 0 1 4 30 26 26 0 0 1 14.08 9.459zM15.791 17h15.89a16.91 16.91 0 0 0 .051 2.926c.342 3.059 1.475 5.69 2.88 8.074H18.692c-1.533-2.398-2.683-4.802-2.986-7.518-.12-1.077-.094-2.237.084-3.482zm4.975 14h15.816c.183.26.36.535.543.791 2.414 3.368 4.806 6.436 5.877 9.8.043.135.072.274.111.409H26.98c-.058-.206-.102-.419-.166-.621C25.52 37.32 23.01 34.094 20.765 31zm6.757 14h16.092c.11 2.34-.414 4.982-1.994 8.25A26 26 0 0 1 30 56a26 26 0 0 1-4.566-.428c1.81-3.928 2.367-7.438 2.09-10.572z"/>
  </g>
</svg>
