<?xml version="1.0" encoding="UTF-8" standalone="no"?>
<svg
   xmlns:dc="http://purl.org/dc/elements/1.1/"
   xmlns:cc="http://creativecommons.org/ns#"
   xmlns:rdf="http://www.w3.org/1999/02/22-rdf-syntax-ns#"
   xmlns:svg="http://www.w3.org/2000/svg"
   xmlns="http://www.w3.org/2000/svg"
   version="1.1"
   height="48"
   id="svg7384"
   width="42">
  <metadata
     id="metadata90">
    <rdf:RDF>
      <cc:Work
         rdf:about="">
        <dc:format>image/svg+xml</dc:format>
        <dc:type
           rdf:resource="http://purl.org/dc/dcmitype/StillImage" />
        <dc:title>Gnome Symbolic Icon Theme</dc:title>
      </cc:Work>
    </rdf:RDF>
  </metadata>
  <title
     id="title9167">Gnome Symbolic Icon Theme</title>
  <defs
     id="defs7386" />
  <path
     style="color:#bebebe;font-style:normal;font-variant:normal;font-weight:normal;font-stretch:normal;font-size:medium;line-height:normal;font-family:Sans;-inkscape-font-specification:Sans;text-indent:0;text-align:start;text-decoration:none;text-decoration-line:none;letter-spacing:normal;word-spacing:normal;text-transform:none;direction:ltr;block-progression:tb;writing-mode:lr-tb;baseline-shift:baseline;text-anchor:start;display:inline;overflow:visible;visibility:visible;fill:#bebebe;fill-opacity:1;stroke:none;stroke-width:2;marker:none;enable-background:accumulate"
     id="rect3259-2-8"
     d="M 0,0 0,3.3907285 0,23.735099 c 0,7.024471 5.2835998,12.48134 9.9531247,16.529802 4.6695243,4.048462 9.2968743,6.781457 9.2968743,6.781457 l 1.75,0.953642 1.859375,-1.059602 c 0,0 4.530015,-2.704344 9.1875,-6.781457 4.657485,-4.077114 9.953125,-9.492175 9.953125,-16.423842 l 0,-20.3443705 0,-3.3907285 -3.5,0 -34.9999991,0 z m 4.0975549,4.0000085 33.8048891,0 0,19.9999745 C 37.00003,30.999997 28.00003,38.999997 20.999999,42.999998 15.00003,38.999997 5.0000303,30.999997 4.0975549,23.999983 Z" />
  <path
     style="color:#bebebe;display:inline;overflow:visible;visibility:visible;fill:#bebebe;fill-opacity:1;stroke:none;stroke-width:2;marker:none"
     id="rect4034-7-1"
     d="m 20.999999,6.9999895 3.1e-5,32.0000075 c -4,-3 -11.9999997,-9 -14.0000302,-15.000014 l 0,-16.9999935 z" />
  <g
     id="layer10"
     transform="translate(-300.99992,-185)" />
  <g
     id="layer11"
     transform="translate(-300.99992,-185)" />
  <g
     id="layer13"
     transform="translate(-300.99992,-185)" />
  <g
     id="layer14"
     transform="translate(-300.99992,-185)" />
  <g
     id="layer15"
     transform="translate(-300.99992,-185)"
     style="display:inline" />
  <g
     transform="translate(-300.99992,-185)"
     id="g71291"
     style="display:inline" />
  <g
     id="g4953"
     transform="translate(-300.99992,-185)"
     style="display:inline" />
  <g
     id="layer12"
     transform="translate(-300.99992,-185)"
     style="display:inline" />
</svg>
